<svg width="11" height="12" viewBox="0 0 11 12" fill="none" xmlns="http://www.w3.org/2000/svg">
<path d="M1.16667 11.6667C0.845833 11.6667 0.571181 11.5524 0.342708 11.324C0.114236 11.0955 0 10.8208 0 10.5V2.33333C0 2.0125 0.114236 1.73785 0.342708 1.50937C0.571181 1.2809 0.845833 1.16667 1.16667 1.16667H1.75V0H2.91667V1.16667H7.58333V0H8.75V1.16667H9.33333C9.65417 1.16667 9.92882 1.2809 10.1573 1.50937C10.3858 1.73785 10.5 2.0125 10.5 2.33333V10.5C10.5 10.8208 10.3858 11.0955 10.1573 11.324C9.92882 11.5524 9.65417 11.6667 9.33333 11.6667H1.16667V11.6667M1.16667 10.5H9.33333V10.5V10.5V4.66667H1.16667V10.5V10.5V10.5V10.5M1.16667 3.5H9.33333V2.33333V2.33333V2.33333H1.16667V2.33333V2.33333V3.5V3.5M1.16667 3.5V2.33333V2.33333V2.33333V2.33333V2.33333V2.33333V3.5V3.5V3.5" fill="#795900"/>
</svg>
