<svg width="28" height="23" viewBox="0 0 28 23" fill="none" xmlns="http://www.w3.org/2000/svg">
<path d="M13.75 22.5L5 17.75V10.25L0 7.5L13.75 0L27.5 7.5V17.5H25V8.875L22.5 10.25V17.75L13.75 22.5V22.5M13.75 12.125L22.3125 7.5L13.75 2.875L5.1875 7.5L13.75 12.125V12.125M13.75 19.6562L20 16.2812V11.5625L13.75 15L7.5 11.5625V16.2812L13.75 19.6562V19.6562M13.75 12.125V12.125V12.125V12.125V12.125V12.125M13.75 14.9375V14.9375V14.9375V14.9375V14.9375V14.9375V14.9375V14.9375V14.9375V14.9375M13.75 14.9375V14.9375V14.9375V14.9375V14.9375V14.9375V14.9375V14.9375V14.9375V14.9375" fill="#795900"/>
</svg>
