<svg width="23" height="23" viewBox="0 0 23 23" fill="none" xmlns="http://www.w3.org/2000/svg">
<path d="M5 22.5V20H10V16.125C8.97917 15.8958 8.06771 15.4635 7.26562 14.8281C6.46354 14.1927 5.875 13.3958 5.5 12.4375C3.9375 12.25 2.63021 11.5677 1.57812 10.3906C0.526042 9.21354 0 7.83333 0 6.25V5C0 4.3125 0.244792 3.72396 0.734375 3.23438C1.22396 2.74479 1.8125 2.5 2.5 2.5H5V0H17.5V2.5H20C20.6875 2.5 21.276 2.74479 21.7656 3.23438C22.2552 3.72396 22.5 4.3125 22.5 5V6.25C22.5 7.83333 21.974 9.21354 20.9219 10.3906C19.8698 11.5677 18.5625 12.25 17 12.4375C16.625 13.3958 16.0365 14.1927 15.2344 14.8281C14.4323 15.4635 13.5208 15.8958 12.5 16.125V20H17.5V22.5H5V22.5M5 9.75V5H2.5V6.25C2.5 7.04167 2.72917 7.75521 3.1875 8.39062C3.64583 9.02604 4.25 9.47917 5 9.75V9.75M11.25 13.75C12.2917 13.75 13.1771 13.3854 13.9062 12.6562C14.6354 11.9271 15 11.0417 15 10V2.5H7.5V10C7.5 11.0417 7.86458 11.9271 8.59375 12.6562C9.32292 13.3854 10.2083 13.75 11.25 13.75V13.75M17.5 9.75C18.25 9.47917 18.8542 9.02604 19.3125 8.39062C19.7708 7.75521 20 7.04167 20 6.25V5H17.5V9.75V9.75M11.25 8.125V8.125V8.125V8.125V8.125V8.125V8.125V8.125V8.125" fill="#795900"/>
</svg>
