<svg width="15" height="15" viewBox="0 0 15 15" fill="none" xmlns="http://www.w3.org/2000/svg">
<path d="M15 15L12 12H4.5C4.0875 12 3.73437 11.8531 3.44062 11.5594C3.14687 11.2656 3 10.9125 3 10.5V9.75H11.25C11.6625 9.75 12.0156 9.60312 12.3094 9.30937C12.6031 9.01562 12.75 8.6625 12.75 8.25V3H13.5C13.9125 3 14.2656 3.14687 14.5594 3.44062C14.8531 3.73437 15 4.0875 15 4.5V15V15M1.5 7.63125L2.38125 6.75H9.75V6.75V6.75V1.5V1.5V1.5H1.5V1.5V1.5V7.63125V7.63125M0 11.25V1.5C0 1.0875 0.146875 0.734375 0.440625 0.440625C0.734375 0.146875 1.0875 0 1.5 0H9.75C10.1625 0 10.5156 0.146875 10.8094 0.440625C11.1031 0.734375 11.25 1.0875 11.25 1.5V6.75C11.25 7.1625 11.1031 7.51562 10.8094 7.80937C10.5156 8.10312 10.1625 8.25 9.75 8.25H3L0 11.25V11.25M1.5 6.75V1.5V1.5V1.5V1.5V1.5V1.5V6.75V6.75V6.75V6.75V6.75V6.75" fill="#191C1D"/>
</svg>
