<svg width="10" height="20" viewBox="0 0 10 20" fill="none" xmlns="http://www.w3.org/2000/svg">
<path d="M0 0H10V7.85C10 8.23333 9.91667 8.575 9.75 8.875C9.58333 9.175 9.35 9.41667 9.05 9.6L5.5 11.7L6.2 14H10L6.9 16.2L8.1 20L5 17.65L1.9 20L3.1 16.2L0 14H3.8L4.5 11.7L0.95 9.6C0.65 9.41667 0.416667 9.175 0.25 8.875C0.0833333 8.575 0 8.23333 0 7.85V0V0M2 2V7.85V7.85V7.85L4 9.05V2H2V2M8 2H6V9.05L8 7.85V7.85V7.85V2V2M5 5.825V5.825V5.825V5.825V5.825V5.825V5.825M4 5.525V5.525V5.525V5.525V5.525V5.525V5.525V5.525M6 5.525V5.525V5.525V5.525V5.525V5.525V5.525V5.525" fill="#795900"/>
</svg>
