<svg width="12" height="12" viewBox="0 0 12 12" fill="none" xmlns="http://www.w3.org/2000/svg">
<path d="M5.84062 11.6667C5.03854 11.6667 4.28264 11.5135 3.57292 11.2073C2.86319 10.901 2.2434 10.483 1.71354 9.95312C1.18368 9.42326 0.765625 8.80347 0.459375 8.09375C0.153125 7.38403 0 6.62813 0 5.82604C0 5.02396 0.153125 4.27049 0.459375 3.56562C0.765625 2.86076 1.18368 2.2434 1.71354 1.71354C2.2434 1.18368 2.86319 0.765625 3.57292 0.459375C4.28264 0.153125 5.03854 0 5.84062 0C6.64271 0 7.39618 0.153125 8.10104 0.459375C8.8059 0.765625 9.42326 1.18368 9.95312 1.71354C10.483 2.2434 10.901 2.86076 11.2073 3.56562C11.5135 4.27049 11.6667 5.02396 11.6667 5.82604C11.6667 6.62813 11.5135 7.38403 11.2073 8.09375C10.901 8.80347 10.483 9.42326 9.95312 9.95312C9.42326 10.483 8.8059 10.901 8.10104 11.2073C7.39618 11.5135 6.64271 11.6667 5.84062 11.6667V11.6667M5.83333 10.4708C6.08611 10.1208 6.30486 9.75625 6.48958 9.37708C6.67431 8.99792 6.825 8.59444 6.94167 8.16667H4.725C4.84167 8.59444 4.99236 8.99792 5.17708 9.37708C5.36181 9.75625 5.58056 10.1208 5.83333 10.4708V10.4708M4.31667 10.2375C4.14167 9.91667 3.98854 9.58368 3.85729 9.23854C3.72604 8.8934 3.61667 8.53611 3.52917 8.16667H1.80833C2.09028 8.65278 2.44271 9.07569 2.86562 9.43542C3.28854 9.79514 3.77222 10.0625 4.31667 10.2375V10.2375M7.35 10.2375C7.89444 10.0625 8.37812 9.79514 8.80104 9.43542C9.22396 9.07569 9.57639 8.65278 9.85833 8.16667H8.1375C8.05 8.53611 7.94062 8.8934 7.80937 9.23854C7.67812 9.58368 7.525 9.91667 7.35 10.2375V10.2375M1.3125 7H3.29583C3.26667 6.80556 3.24479 6.61354 3.23021 6.42396C3.21563 6.23437 3.20833 6.0375 3.20833 5.83333C3.20833 5.62917 3.21563 5.43229 3.23021 5.24271C3.24479 5.05312 3.26667 4.86111 3.29583 4.66667H1.3125C1.26389 4.86111 1.22743 5.05312 1.20312 5.24271C1.17882 5.43229 1.16667 5.62917 1.16667 5.83333C1.16667 6.0375 1.17882 6.23437 1.20312 6.42396C1.22743 6.61354 1.26389 6.80556 1.3125 7V7M4.4625 7H7.20417C7.23333 6.80556 7.25521 6.61354 7.26979 6.42396C7.28437 6.23437 7.29167 6.0375 7.29167 5.83333C7.29167 5.62917 7.28437 5.43229 7.26979 5.24271C7.25521 5.05312 7.23333 4.86111 7.20417 4.66667H4.4625C4.43333 4.86111 4.41146 5.05312 4.39687 5.24271C4.38229 5.43229 4.375 5.62917 4.375 5.83333C4.375 6.0375 4.38229 6.23437 4.39687 6.42396C4.41146 6.61354 4.43333 6.80556 4.4625 7V7M8.37083 7H10.3542C10.4028 6.80556 10.4392 6.61354 10.4635 6.42396C10.4878 6.23437 10.5 6.0375 10.5 5.83333C10.5 5.62917 10.4878 5.43229 10.4635 5.24271C10.4392 5.05312 10.4028 4.86111 10.3542 4.66667H8.37083C8.4 4.86111 8.42188 5.05312 8.43646 5.24271C8.45104 5.43229 8.45833 5.62917 8.45833 5.83333C8.45833 6.0375 8.45104 6.23437 8.43646 6.42396C8.42188 6.61354 8.4 6.80556 8.37083 7V7M8.1375 3.5H9.85833C9.57639 3.01389 9.22396 2.59097 8.80104 2.23125C8.37812 1.87153 7.89444 1.60417 7.35 1.42917C7.525 1.75 7.67812 2.08299 7.80937 2.42812C7.94062 2.77326 8.05 3.13056 8.1375 3.5V3.5M4.725 3.5H6.94167C6.825 3.07222 6.67431 2.66875 6.48958 2.28958C6.30486 1.91042 6.08611 1.54583 5.83333 1.19583C5.58056 1.54583 5.36181 1.91042 5.17708 2.28958C4.99236 2.66875 4.84167 3.07222 4.725 3.5V3.5M1.80833 3.5H3.52917C3.61667 3.13056 3.72604 2.77326 3.85729 2.42812C3.98854 2.08299 4.14167 1.75 4.31667 1.42917C3.77222 1.60417 3.28854 1.87153 2.86562 2.23125C2.44271 2.59097 2.09028 3.01389 1.80833 3.5V3.5" fill="#504532"/>
</svg>
