<svg width="25" height="25" viewBox="0 0 25 25" fill="none" xmlns="http://www.w3.org/2000/svg">
<path d="M12.5 25C10.7708 25 9.14583 24.6719 7.625 24.0156C6.10417 23.3594 4.78125 22.4688 3.65625 21.3438C2.53125 20.2188 1.64062 18.8958 0.984375 17.375C0.328125 15.8542 0 14.2292 0 12.5C0 10.7708 0.328125 9.14583 0.984375 7.625C1.64062 6.10417 2.53125 4.78125 3.65625 3.65625C4.78125 2.53125 6.10417 1.64062 7.625 0.984375C9.14583 0.328125 10.7708 0 12.5 0C14.2292 0 15.8542 0.328125 17.375 0.984375C18.8958 1.64062 20.2188 2.53125 21.3438 3.65625C22.4688 4.78125 23.3594 6.10417 24.0156 7.625C24.6719 9.14583 25 10.7708 25 12.5C25 14.2292 24.6719 15.8542 24.0156 17.375C23.3594 18.8958 22.4688 20.2188 21.3438 21.3438C20.2188 22.4688 18.8958 23.3594 17.375 24.0156C15.8542 24.6719 14.2292 25 12.5 25V25M11.25 22.4375V20C10.5625 20 9.97396 19.7552 9.48438 19.2656C8.99479 18.776 8.75 18.1875 8.75 17.5V16.25L2.75 10.25C2.6875 10.625 2.63021 11 2.57812 11.375C2.52604 11.75 2.5 12.125 2.5 12.5C2.5 15.0208 3.32812 17.2292 4.98438 19.125C6.64062 21.0208 8.72917 22.125 11.25 22.4375V22.4375M19.875 19.25C20.7292 18.3125 21.3802 17.2656 21.8281 16.1094C22.276 14.9531 22.5 13.75 22.5 12.5C22.5 10.4583 21.9323 8.59375 20.7969 6.90625C19.6615 5.21875 18.1458 4 16.25 3.25V3.75C16.25 4.4375 16.0052 5.02604 15.5156 5.51562C15.026 6.00521 14.4375 6.25 13.75 6.25H11.25V8.75C11.25 9.10417 11.1302 9.40104 10.8906 9.64062C10.651 9.88021 10.3542 10 10 10H7.5V12.5H15C15.3542 12.5 15.651 12.6198 15.8906 12.8594C16.1302 13.099 16.25 13.3958 16.25 13.75V17.5H17.5C18.0417 17.5 18.5312 17.6615 18.9688 17.9844C19.4062 18.3073 19.7083 18.7292 19.875 19.25V19.25" fill="#795900"/>
</svg>
